# Blender 3.1.0
# www.blender.org
o Water
v -0.633520 0.168599 -0.448380
v 0.272377 0.168599 -0.262828
v -0.426208 0.168794 -0.851596
v 0.389514 0.168599 -0.727231
v -0.426935 0.168794 -0.915943
v -0.825103 0.168599 -0.699094
v -0.497465 0.076582 -0.955711
v -0.820041 0.106830 -0.780031
v -0.499618 -1.465352 -0.950980
v -0.825602 -1.483722 -0.780009
vn 0.0001 1.0000 0.0002
vn -0.0003 1.0000 0.0002
vn -0.0002 1.0000 0.0004
vn -0.1526 0.9480 -0.2792
vn -0.2017 0.8857 -0.4182
vn -0.4221 0.4562 -0.7834
vn -0.4277 0.3246 -0.8436
vn -0.4665 -0.0015 -0.8845
vn 0.0002 1.0000 0.0001
vn -0.4644 -0.0021 -0.8856
vt 0.984568 0.678994
vt 0.984568 0.994225
vt 0.008704 0.678994
vt 0.008704 0.994225
vt 0.008704 0.610558
vt 0.984568 0.610559
vt 0.008704 0.570087
vt 0.984568 0.570087
vt 0.008705 0.005775
vt 0.984569 0.005775
s 1
f 2/2/1 3/3/2 1/1/3
f 3/3/2 6/6/4 1/1/3
f 5/5/5 8/8/6 6/6/4
f 7/7/7 10/10/8 8/8/6
f 2/2/1 4/4/9 3/3/2
f 3/3/2 5/5/5 6/6/4
f 5/5/5 7/7/7 8/8/6
f 7/7/7 9/9/10 10/10/8
